<?xml version="1.0" standalone="no"?>
<!DOCTYPE svg PUBLIC "-//W3C//DTD SVG 1.1//EN" "http://www.w3.org/Graphics/SVG/1.1/DTD/svg11.dtd" >
<svg xmlns="http://www.w3.org/2000/svg">
<metadata>Generated by IcoMoon</metadata>
<defs>
<font id="icomoon" horiz-adv-x="1024">
<font-face units-per-em="1024" ascent="960" descent="-64" />
<missing-glyph horiz-adv-x="1024" />
<glyph unicode="&#x20;" horiz-adv-x="512" d="" />
<glyph unicode="&#xe900;" glyph-name="libra" d="M170.667 21.335h682.664v-85.333h-682.664zM1023.996 405.334c0-94.257-76.41-170.666-170.666-170.666s-170.666 76.41-170.666 170.666v0c-0.001 0.111-0.002 0.241-0.002 0.372 0 5.225 0.939 10.23 2.658 14.856l-0.096-0.295 106.667 283.732h-237.226v-554.664h128v-85.333h-341.332v85.333h128v554.664h-237.226l106.667-283.732c1.707-4.693 2.56-9.813 2.56-14.933 0-94.257-76.41-170.666-170.666-170.666s-170.666 76.41-170.666 170.666v0c-0.001 0.111-0.002 0.241-0.002 0.372 0 5.225 0.939 10.23 2.658 14.856l-0.096-0.295 128 341.332c5.524 14.122 17.961 24.433 33.036 26.848l0.244 0.032c1.687 0.565 3.63 0.891 5.649 0.891 0.414 0 0.826-0.014 1.233-0.041l-0.055 0.003h682.664c2.987 0 5.547 0 6.827-0.853 14.933-2.56 27.733-12.8 33.28-26.88l128-341.332c1.707-4.693 2.56-9.813 2.56-14.933zM170.667 625.067l-85.333-226.559c0-47.128 38.205-85.333 85.333-85.333s85.333 38.205 85.333 85.333v0zM938.665 398.508l-85.333 226.559-85.333-226.559c0-47.128 38.205-85.333 85.333-85.333s85.333 38.205 85.333 85.333v0zM469.332 917.332c0 23.564 19.103 42.667 42.667 42.667s42.667-19.103 42.667-42.667v0c0-23.564-19.103-42.667-42.667-42.667s-42.667 19.103-42.667 42.667v0z" />
<glyph unicode="&#xe901;" glyph-name="magnifier" d="M425.187 140.8c-223.014 2.261-402.931 183.574-402.931 406.909 0 0.946 0.003 1.892 0.010 2.836l-0.001-0.145c0 226.17 180.758 409.6 402.922 409.6 222.963-2.009 402.934-183.221 402.934-406.468 0-1.101-0.004-2.201-0.013-3.3l0.001 0.168c0-105.071-39.179-201.683-104.181-274.254l277.816-282.268-56.988-57.878-278.261 282.713 17.809 18.699c-69.11-59.76-159.855-96.167-259.103-96.167-0.005 0-0.010 0-0.015 0h0.001zM425.187 878.080c-177.642 0-322.337-146.922-322.337-327.235-0.007-0.797-0.011-1.739-0.011-2.682 0-178.562 143.999-323.492 322.206-324.997l0.143-0.001c178.087 0 322.783 146.922 322.783 327.68 0.005 0.664 0.008 1.448 0.008 2.234 0 178.717-144.249 323.743-322.671 325l-0.12 0.001z" />
<glyph unicode="&#xe902;" glyph-name="minus" d="M938.667 533.333h-853.333c-47.128 0-85.333-38.205-85.333-85.333v0c0-47.128 38.205-85.333 85.333-85.333v0h853.333c47.128 0 85.333 38.205 85.333 85.333v0c0 47.128-38.205 85.333-85.333 85.333v0z" />
<glyph unicode="&#xe903;" glyph-name="oneclick" d="M887.467 576v-256c0-211.627-168.619-384-375.467-384-207.189 0-375.467 172.373-375.467 384v256c0 211.627 168.277 384 375.467 384 206.848 0 375.467-172.373 375.467-384zM803.841 576c0.010 0.92 0.016 2.007 0.016 3.096 0 161.938-130.22 293.462-291.658 295.569l-0.199 0.002c-161.785-1.919-292.198-133.517-292.198-295.575 0-1.087 0.006-2.173 0.018-3.257l-0.001 0.166v-256c-0.010-0.919-0.016-2.005-0.016-3.092 0-162.058 130.413-293.657 292.017-295.573l0.181-0.002c161.637 2.11 291.856 133.633 291.856 295.571 0 1.089-0.006 2.176-0.018 3.261l0.001-0.166zM546.475 448.341h-76.8v156.331h-60.075v57.344h6.827c35.84 0 67.243 21.504 68.267 59.392h61.44z" />
<glyph unicode="&#xe904;" glyph-name="phone-in" d="M926.475 569.905h-292.571v292.571h97.524v-125.806l223.817 223.33 68.267-68.754-223.33-223.817h126.293zM1023.999 179.81c0-134.652-109.157-243.81-243.81-243.81v0c-430.080 0-780.189 350.11-780.189 780.189 0.066 134.602 109.198 243.693 243.809 243.693 134.652 0 243.81-109.157 243.81-243.81 0-97.496-57.227-181.627-139.923-220.633l-1.486-0.63c47.55-91.955 120.648-165.052 209.894-211.325l2.708-1.277c39.585 84.319 123.785 141.661 221.379 141.661 134.652 0 243.81-109.157 243.81-243.81 0-0.088 0-0.177 0-0.265v0.014zM926.475 179.81c0 0.066 0 0.145 0 0.223 0 80.791-65.494 146.286-146.286 146.286-71.388 0-130.833-51.136-143.703-118.777l-0.145-0.913-10.24-57.539-55.101 20.968c-155.799 60.685-276.748 181.635-336.064 333.455l-1.368 3.977-20.48 54.613 57.539 10.728c67.362 13.996 117.257 72.86 117.257 143.377 0 80.015-64.241 145.025-143.96 146.268l-0.117 0.001c-80.791 0-146.286-65.494-146.286-146.286v0c0-376.442 306.225-682.666 682.666-682.666 80.791 0 146.286 65.494 146.286 146.286v0z" />
<glyph unicode="&#xe905;" glyph-name="phone-out" d="M1023.806 959.618v-292.399h-97.911v125.95l-222.971-223.416-68.983 68.983 223.416 223.416h-125.504v97.467zM1023.806 179.888c0-134.696-109.192-243.888-243.888-243.888v0c-430.429 0.507-779.223 349.301-779.73 779.681v0.049c0 0.113 0 0.248 0 0.382 0 134.696 109.192 243.888 243.888 243.888s243.888-109.192 243.888-243.888c0-97.728-57.481-182.030-140.478-220.944l-1.494-0.63c47.576-92.015 120.72-165.158 210.025-211.457l2.71-1.278c39.253 84.9 123.692 142.747 221.641 142.747 134.45 0 243.443-108.993 243.443-243.443 0-0.586-0.002-1.171-0.006-1.755v0.090zM925.895 179.888c-2.776 78.684-67.23 141.415-146.336 141.415-69.629 0-127.906-48.601-142.759-113.73l-0.189-0.983-10.681-57.856-54.742 20.917c-155.771 60.652-276.697 181.578-335.982 333.373l-1.367 3.977-20.917 54.742 57.856 10.681c68.985 12.497 120.621 72.097 120.621 143.757 0 80.621-65.356 145.977-145.977 145.977-0.474 0-0.947-0.002-1.419-0.007l0.072 0.001c-80.867 0-146.422-65.556-146.422-146.422v0c0-376.069 306.196-682.263 682.263-682.263 80.867 0 146.422 65.556 146.422 146.422v0z" />
<glyph unicode="&#xe906;" glyph-name="placemark" d="M512.597 400.68c-0.687-0.010-1.5-0.016-2.312-0.016-45.659 0-87.020 18.405-117.066 48.201l0.012-0.011c-29.789 30.291-48.181 71.871-48.181 117.746 0 0.57 0.003 1.139 0.009 1.708l-0.001-0.087c0 94.641 73.326 168.393 166.688 168.393 93.789 0 167.114-73.752 167.54-167.967 0.017-0.888 0.027-1.936 0.027-2.987 0-91.353-74.056-165.409-165.409-165.409-0.309 0-0.618 0.001-0.927 0.003h0.047zM511.745 652.204c-47.321 0-83.131-35.81-83.131-83.557 0-23.447 8.526-44.763 23.447-60.11 31.547-31.547 89.525-30.268 119.793 0 15.347 15.347 23.873 36.662 23.873 59.683 0 48.173-35.81 83.983-83.557 83.983zM511.745-64l-31.547 38.368c-9.805 11.51-240.013 286.481-287.76 363.217-40.836 61.924-65.144 137.884-65.144 219.52 0 5.858 0.125 11.687 0.373 17.483l-0.028-0.827c0 213.155 172.656 386.238 384.533 386.238 212.528-0.727 384.534-173.182 384.534-385.81 0-0.151 0-0.301 0-0.452v0.023c0-81-11.084-149.209-65.226-236.176-47.321-76.736-277.529-351.707-287.334-363.644zM511.745 876.017c-166.145-0.726-300.55-135.58-300.55-301.826 0-0.151 0-0.302 0-0.453v0.023c0-80.573 12.789-128.746 52.436-191.84 34.105-55.421 182.461-235.751 248.54-315.47 66.078 79.721 214.009 260.050 248.54 315.47 32.877 49.221 52.464 109.749 52.464 174.852 0 5.976-0.165 11.913-0.491 17.808l0.036-0.819c0 166.688-134.715 302.681-300.55 302.681z" />
<glyph unicode="&#xe907;" glyph-name="plus" d="M938.667 533.333h-341.334v341.334c0 47.128-38.205 85.333-85.333 85.333v0c-47.128 0-85.333-38.205-85.333-85.333v0-341.334h-341.334c-47.128 0-85.333-38.205-85.333-85.333v0c0-47.128 38.205-85.333 85.333-85.333v0h341.334v-341.334c0-47.128 38.205-85.333 85.333-85.333v0c47.128 0 85.333 38.205 85.333 85.333v0 341.334h341.334c47.128 0 85.333 38.205 85.333 85.333v0c0 47.128-38.205 85.333-85.333 85.333v0z" />
<glyph unicode="&#xe908;" glyph-name="quest" d="M512-64c-272.208 13.616-487.759 237.636-487.759 512s215.551 498.384 486.546 511.952l1.213 0.048c272.208-13.616 487.759-237.636 487.759-512s-215.551-498.384-486.546-511.952l-1.213-0.048zM512 852.781c-4.66 0.192-10.129 0.301-15.623 0.301-223.887 0-405.384-181.496-405.384-405.384s181.496-405.384 405.384-405.384c5.495 0 10.964 0.109 16.405 0.326l-0.782-0.025c217.063 8.633 389.76 186.69 389.76 405.082s-172.697 396.449-388.978 405.058l-0.782 0.025zM565.609 187.784h-107.821v99.991h107.821zM563.802 313.675h-99.388v25.299c0 69.873 15.661 107.821 60.838 149.986 12.047 11.445 24.094 33.732 24.094 45.779 0 25.901-12.047 40.358-35.539 40.358s-34.936-13.252-34.936-40.358h-99.388c0 90.353 56.621 155.407 134.325 155.407 78.306 0 134.927-65.054 134.927-155.407 0-54.814-30.72-107.821-61.44-136.132-21.685-19.878-23.492-24.094-23.492-60.235z" />
<glyph unicode="&#xe909;" glyph-name="rss" d="M230.166 257.975c-104.031 1.199-187.902 85.812-187.902 190.013 0 0.755 0.004 1.508 0.013 2.261l-0.001-0.114c-0.003 0.384-0.004 0.839-0.004 1.293 0 104.199 83.867 188.809 187.781 190.012l0.114 0.001c55.513 0 105.475-24.768 140.064-64.053l240.413 145.188c-3.816 14.226-6.008 30.558-6.008 47.404 0 104.508 84.365 189.311 188.705 190.020h0.068c104.265-1.202 188.325-86.005 188.325-190.44 0-0.605-0.003-1.209-0.008-1.813l0.001 0.092c0.003-0.384 0.004-0.839 0.004-1.293 0-104.199-83.867-188.809-187.781-190.012l-0.114-0.001c-0.127 0-0.278 0-0.429 0-58.016 0-109.85 26.476-144.076 68.005l-0.256 0.319-237.851-143.052c4.63-15.804 7.294-33.959 7.294-52.737s-2.664-36.934-7.634-54.109l0.34 1.372 240.841-141.771c34.589 39.713 85.404 64.907 141.345 64.907 104.214-0.963 188.325-85.667 188.325-190.017 0-0.604-0.003-1.206-0.008-1.808l0.001 0.092c0.005-0.511 0.008-1.115 0.008-1.72 0-104.2-83.869-188.811-187.785-190.012l-0.113-0.001c-104.589 0.472-189.193 85.368-189.193 190.023 0 18.555 2.659 36.489 7.618 53.442l-0.336-1.343-242.549 142.626c-34.161-38.432-84.123-62.772-139.209-62.772zM230.166 554.756c-57.178-0.481-103.343-46.944-103.343-104.19 0-0.301 0.001-0.603 0.004-0.904v0.046c-0.002-0.255-0.004-0.556-0.004-0.858 0-57.246 46.165-103.708 103.297-104.19h0.046c56.794 0 103.339 46.972 103.339 105.048 0.002 0.255 0.004 0.556 0.004 0.858 0 57.246-46.165 103.708-103.297 104.19h-0.046zM793.836 873.315c-57.362-0.24-103.771-46.797-103.771-104.193 0-0.3 0.001-0.601 0.004-0.901v0.046c-0.002-0.255-0.004-0.556-0.004-0.858 0-57.246 46.165-103.708 103.297-104.19h0.046c57.221 0 103.339 46.972 103.339 105.048 0.002 0.255 0.004 0.556 0.004 0.858 0 57.246-46.165 103.708-103.297 104.19h-0.046zM793.836 232.781c-57.362-0.24-103.771-46.797-103.771-104.193 0-0.3 0.001-0.601 0.004-0.901v0.046c-0.002-0.255-0.004-0.556-0.004-0.858 0-57.246 46.165-103.708 103.297-104.19h0.046c57.221 0 103.339 46.972 103.339 105.048 0.002 0.255 0.004 0.556 0.004 0.858 0 57.246-46.165 103.708-103.297 104.19h-0.046z" />
<glyph unicode="&#xe90a;" glyph-name="shield" d="M511.794-64c-4.094 0-8.599 0.41-13.102 1.637-23.747 6.96-396.743 214.544-396.743 429.908v383.233c0 26.613 21.7 48.314 48.314 48.314 80.25 0 297.251 104.406 321.817 140.027 9.007 13.102 24.156 20.882 39.715 20.882h0.41c15.968 0 31.118-7.779 40.125-20.472 22.519-33.983 229.284-140.437 321.407-140.437 26.613 0 48.314-21.7 48.314-48.314v-403.295c0-184.656-377.91-404.523-397.153-409.436-4.094-1.637-8.189-2.047-13.102-2.047zM198.167 708.197v-340.651c0-125.288 239.11-288.243 314.037-329.596 74.927 42.581 313.219 215.773 313.219 309.534v360.304c-97.446 18.015-240.339 81.887-314.037 138.798-89.496-61.842-194.165-109.574-306.77-137.059l-6.448-1.33z" />
<glyph unicode="&#xe90b;" glyph-name="star" d="M535.128 929.291l142.899-315.532 322.966-31.388c21.476-1.652 30.562-28.084 15.694-42.952l-236.236-244.497 57.82-313.881c3.304-20.65-17.346-37.17-36.344-27.258l-289.927 144.55-289.927-143.724c-18.998-9.086-39.648 6.608-35.518 27.258l56.994 313.054-236.236 244.497c-14.868 14.868-5.782 41.3 15.694 42.952l322.141 31.388 143.724 315.532c3.676 9.37 12.642 15.883 23.128 15.883s19.451-6.513 23.070-15.716l0.058-0.168z" />
<glyph unicode="&#xe90c;" glyph-name="twitter" d="M9.819 271.365s138.244-47.617 195.077-47.617c0 0 76.802-30.721 129.54 50.689 0 0 17.92 25.6-6.144 37.377 0 0-219.654 25.6-202.757 65.026 0 0-1.024 22.528 29.185 17.409 0 0 42.497 80.386 25.6 90.626 0 0-25.6 22.528-5.12 24.577 0 0 61.442-8.192 81.41-13.312 0 0 13.312 5.12 1.024 13.824-12.801 9.216-33.793 30.209-29.185 34.305 0 0 7.168 16.896 40.961 2.56 0 0 18.432 19.969 8.704 30.209 0 0-28.161 16.384-14.337 29.697 0 0 63.49 77.826 134.659-45.569 0 0 17.409-23.041 19.456-1.024 0 0 87.042 241.671 200.709 261.127 0 0 36.353-7.168 44.033 4.096 0 0 31.745 12.288 41.985 2.048 0 0 10.24-15.36 23.041-6.144 0 0 45.057 17.409 31.233-11.265 0 0-43.009-46.081-58.37-47.105-15.873-1.024-12.801-22.017 1.024-24.064 0 0 187.397-13.312 187.397-150.020 0 0 11.265-32.257 46.594 1.024 0 0 53.761 33.793 67.586 35.329 0 0 14.337 9.216 12.288-12.288 0 0-38.401-65.538-78.338-83.97 0 0-24.064-29.185 10.24-23.553 0 0 33.793 7.168 49.666 16.384 0 0 40.961 18.945 22.017-15.36 0 0-86.018-54.785-104.963-54.785 0 0-12.288-3.072-12.288-14.337 0 0-11.776-372.746-489.997-372.746 0 0-239.622 0.512-396.299 180.229 0 0-30.209 31.745-6.144 26.625z" />
<glyph unicode="&#xe90d;" glyph-name="vk" d="M907.060 249.125c0-50.777-10.002-95.399-28.466-133.867s-43.083-70.011-74.627-95.399c-36.929-30.774-77.704-51.547-123.096-64.625-43.852-13.079-100.015-19.234-169.256-19.234h-394.675v1024h348.514c73.088 0 127.711-3.078 165.409-8.463 36.929-6.154 72.318-17.695 104.631-36.159 35.39-20.003 61.547-46.161 79.243-79.243s26.158-70.779 26.158-114.633c0-50.008-12.31-93.86-36.159-133.097-23.849-38.467-56.932-67.703-100.015-86.167v-5.385c61.547-13.079 110.016-40.006 146.175-81.55 36.929-40.776 55.393-96.169 55.393-166.179zM576.241 721.504c-7.711 16.801-20.897 29.987-37.23 37.504l-0.468 0.194c-16.156 7.693-35.39 11.54-57.701 12.31h-116.941v-215.417h120.018c16.925 1.539 34.62 6.154 53.085 15.387 19.234 9.232 33.081 23.081 40.776 39.237 7.693 17.695 11.54 36.929 11.54 59.24 0 16.925-4.617 33.851-12.31 51.547zM651.637 254.511c0 30.774-6.154 56.162-19.234 73.857-12.31 18.464-30.774 30.774-55.393 40.776-15.387 6.154-35.39 9.232-61.547 10.002l-106.17 0.769h-46.161v-256.193h13.849c64.625 0 109.247 0 133.867 1.539 24.619 0 50.008 6.924 75.396 18.464 23.081 10.002 38.467 24.619 49.238 43.852 10.771 20.003 15.387 41.545 15.387 66.933z" />
<glyph unicode="&#xe90e;" glyph-name="angle-bottom" d="M0 630.561l145.843 146.877 366.157-366.157 365.123 366.157 146.877-146.877-512-512z" />
<glyph unicode="&#xe90f;" glyph-name="angle-top" d="M512 755.609l146.139-136.942 365.861-341.334-146.139-136.942-365.861 342.356-365.861-342.356-146.139 136.942z" />
<glyph unicode="&#xe910;" glyph-name="arrow-left" d="M361.668 164.155c-131.803 125.474-252.7 240.506-268.66 255.625s-29.016 27.836-29.014 28.258c0.005 0.967 1.938 2.812 294.251 280.815 133.582 127.042 243.197 231.059 243.59 231.147 0.676 0.153 59.643-55.441 59.643-56.231 0-0.206-97.414-93.094-216.476-206.418l-216.476-206.044 731.48-0.257v-86.024l-731.041-0.257 432.396-411.953-7.239-7.079c-22.593-22.095-51.599-49.753-52.161-49.737-0.358 0.010-108.49 102.68-240.293 228.154z" />
<glyph unicode="&#xe911;" glyph-name="arrow-right" d="M399.28-42.788c-12.194 11.755-25.429 24.559-29.411 28.453l-7.239 7.080 432.428 411.983-731.096 0.257v86.030l731.535 0.257-216.492 206.059c-119.070 113.333-216.492 206.228-216.492 206.433 0 0.79 58.971 56.388 59.647 56.235 0.393-0.089 110.016-104.113 243.608-231.164 292.413-278.098 294.269-279.869 294.27-280.835 0-0.422-11.904-12.047-26.456-25.832s-135.417-128.776-268.59-255.535c-133.173-126.759-242.45-230.544-242.837-230.632s-10.681 9.457-22.876 21.212z" />
<glyph unicode="&#xe912;" glyph-name="arrow-right-sm" d="M83.621 531.559h654.749l-212.397 212.397c-15.016 15.119-24.297 35.953-24.297 58.953 0 46.209 37.46 83.667 83.667 83.667 23.208 0 44.209-9.449 59.366-24.711l354.556-354.556c15.277-15.157 24.734-36.159 24.734-59.371s-9.457-44.214-24.729-59.365l-354.557-354.557c-15.194-15.194-36.185-24.592-59.371-24.592-46.371 0-83.962 37.591-83.962 83.962 0 23.186 9.398 44.176 24.592 59.371v0l212.397 211.56h-654.749c-46.182 0-83.62 37.438-83.62 83.62s37.438 83.62 83.62 83.62v0z" />
<glyph unicode="&#xe913;" glyph-name="car" d="M1023.977 418.432v-90.063c0-36.759-29.799-66.559-66.559-66.559v0h-26.53c-9.362-40.384-45.029-70.024-87.62-70.024s-78.258 29.64-87.501 69.417l-0.118 0.606h-239.238c-9.552-40.131-45.096-69.516-87.504-69.516s-77.951 29.385-87.381 68.904l-0.123 0.611h-33.047c-36.759 0-66.559 29.799-66.559 66.559v0 34.443h-79.126c-11.182 0-20.247 9.065-20.247 20.247s9.065 20.247 20.247 20.247h153.597c11.182 0 20.247-9.065 20.247-20.247s-9.065-20.247-20.247-20.247h-33.977v-34.443c0-14.429 11.636-26.065 26.065-26.065h33.047c9.736 39.883 45.158 69.021 87.387 69.021s77.651-29.138 87.26-68.405l0.127-0.615h239.704c9.736 39.883 45.158 69.021 87.387 69.021s77.651-29.138 87.26-68.405l0.127-0.615h26.763c14.429 0 26.065 11.636 26.065 26.065v90.529c-6.749 12.8-13.498 24.901-20.247 36.537h-179.428c-55.155 0-75.169 46.544-75.169 77.496v72.144c0 11.182 9.065 20.247 20.247 20.247s20.247-9.065 20.247-20.247v0-72.144c0-8.611 3.025-37.236 34.676-37.236h154.528c-116.128 175.938-215.035 167.56-216.199 167.793l-3.025 0.232h-463.35c-11.182 0-20.247 9.065-20.247 20.247s9.065 20.247 20.247 20.247h469.401c34.443 0 164.534-17.92 296.255-270.19 1.862-3.723 2.56-7.447 2.327-11.403 0.161-0.977 0.254-2.103 0.254-3.25 0-0.33-0.007-0.658-0.022-0.985l0.001 0.046zM474.055 261.81c2.63 5.808 4.162 12.593 4.162 19.736 0 7.538-1.706 14.677-4.754 21.053l0.127-0.294c-8.029 17.012-25.042 28.573-44.755 28.573-27.248 0-49.337-22.089-49.337-49.337s22.089-49.337 49.337-49.337c20.112 0 37.413 12.034 45.095 29.293l0.125 0.314zM888.3 261.81c2.63 5.808 4.162 12.593 4.162 19.736 0 7.538-1.706 14.677-4.754 21.053l0.127-0.294c-8.029 17.012-25.042 28.573-44.755 28.573-27.248 0-49.337-22.089-49.337-49.337s22.089-49.337 49.337-49.337c20.112 0 37.413 12.034 45.095 29.293l0.125 0.314zM68.886 608.333c0 11.171 9.076 20.247 20.247 20.247h304.401c11.182 0 20.247-9.065 20.247-20.247s-9.065-20.247-20.247-20.247h-304.633c-11.182 0-20.247 9.065-20.247 20.247v0zM393.533 437.98h-373.286c-11.182 0-20.247 9.065-20.247 20.247s9.065 20.247 20.247 20.247h373.286c11.182 0 20.247-9.065 20.247-20.247s-9.065-20.247-20.247-20.247v0zM177.567 553.411h293.23c11.182 0 20.247-9.065 20.247-20.247s-9.065-20.247-20.247-20.247h-293.23c-11.182 0-20.247 9.065-20.247 20.247s9.065 20.247 20.247 20.247v0z" />
<glyph unicode="&#xe914;" glyph-name="cart" d="M891.714 410.813h-506.458l22.037-80.278 461.991 1.967c21.733 0 39.352-17.619 39.352-39.352v0c-0.222-21.564-17.754-38.958-39.35-38.958-0.001 0-0.002 0-0.002 0h-462.778c-35.023 0-64.931 22.037-75.162 55.092l-145.602 532.431h-145.995c-0.117-0.001-0.255-0.002-0.394-0.002-21.733 0-39.352 17.619-39.352 39.352 0 0.001 0 0.001 0 0.002v0c0 21.733 17.619 39.352 39.352 39.352v0h175.903c0.052 0 0.112 0 0.172 0 18.095 0 33.337-12.212 37.934-28.844l0.065-0.277 46.435-170.394c4.618 2.158 10.017 3.454 15.71 3.542h629.267c27.547 0 52.338-12.592 66.898-33.449 12.986-18.495 15.741-40.926 7.87-61.783l-51.551-167.245c-11.806-31.481-41.713-51.158-75.949-51.158zM893.289 488.729l48.797 156.62-620.972 0.787 42.894-157.014zM760.279-24.418c-0.118 0-0.257-0.001-0.397-0.001-64.272 0-116.427 51.879-116.872 116.046v0.042c0.445 64.209 52.6 116.088 116.872 116.088 0.139 0 0.279 0 0.418-0.001h-0.021c0.001 0 0.002 0 0.003 0 64.272 0 116.426-51.879 116.872-116.046v-0.042c-0.446-64.209-52.601-116.088-116.872-116.088-0.001 0-0.002 0-0.003 0v0zM760.279 129.054c-0.003 0-0.006 0-0.008 0-20.805 0-37.722-16.644-38.162-37.343l-0.001-0.042c0-20.856 16.922-37.778 38.172-37.778 20.856 0 37.778 16.922 37.778 37.778-0.22 20.775-17.003 37.558-37.757 37.778h-0.021zM444.284-24.418c-0.118 0-0.257-0.001-0.397-0.001-64.272 0-116.427 51.879-116.872 116.046v0.042c0.445 64.209 52.6 116.088 116.872 116.088 0.139 0 0.279 0 0.418-0.001h-0.021c0.001 0 0.002 0 0.003 0 64.272 0 116.426-51.879 116.872-116.046v-0.042c-0.446-64.209-52.601-116.088-116.872-116.088-0.001 0-0.002 0-0.003 0v0zM444.284 129.054c-0.003 0-0.006 0-0.008 0-20.805 0-37.722-16.644-38.162-37.343l-0.001-0.042c0-20.856 16.922-37.778 38.172-37.778 20.856 0 37.778 16.922 37.778 37.778-0.22 20.775-17.003 37.558-37.757 37.778h-0.021z" />
<glyph unicode="&#xe915;" glyph-name="close" d="M1003.773 54.303l-393.697 393.697 393.697 393.697c12.5 12.573 20.227 29.903 20.227 49.038s-7.726 36.466-20.23 49.041l0.003-0.003c-12.573 12.5-29.903 20.227-49.038 20.227s-36.466-7.726-49.041-20.23l0.003 0.003-393.697-393.001-393.697 393.001c-12.573 12.5-29.903 20.227-49.038 20.227s-36.466-7.726-49.041-20.23l0.003 0.003c-12.5-12.573-20.227-29.903-20.227-49.038s7.726-36.466 20.23-49.041l393.693-393.693-393.697-393.697c-10.396-12.083-16.725-27.925-16.725-45.244 0-38.415 31.142-69.558 69.558-69.558 17.32 0 33.161 6.33 45.335 16.803l-0.091-0.077 393.697 393.697 393.697-393.697c12.573-12.5 29.903-20.227 49.038-20.227s36.466 7.726 49.041 20.23l-0.003-0.003c12.5 12.573 20.227 29.903 20.227 49.038s-7.726 36.466-20.23 49.041l0.003-0.003z" />
<glyph unicode="&#xe916;" glyph-name="envelope" d="M1024 832v-768h-1024v768zM938.667 221.867v477.867l-426.667-349.867-426.667 349.867v-477.867l180.907 211.2 64.853-55.467-195.84-228.267h753.067l-195.413 228.267 64.853 55.467zM512 460.8l349.867 285.867h-699.734z" />
<glyph unicode="&#xe917;" glyph-name="facebook" d="M754.845 959.279h-151.217s-237.078 24.989-237.078-219.137v-101.239h-96.113l-1.282-192.225h98.035v-510.678h224.263v511.319h129.432l32.038 192.225h-161.469v77.531s-14.097 65.997 65.997 65.997h96.113z" />
<glyph unicode="&#xe918;" glyph-name="fav" d="M512.215 18.331c-17.18 0-33.071 6.872-45.526 18.898l-392.124 399.425c-46.106 46.991-74.565 111.438-74.565 182.533s28.459 135.542 74.605 182.574l-0.040-0.041c45.754 46.876 109.568 75.949 180.171 75.949s134.416-29.072 180.121-75.898l77.358-78.647 76.879 78.597c45.754 46.876 109.568 75.949 180.171 75.949s134.416-29.072 180.121-75.898l0.049-0.050c46.106-46.991 74.565-111.438 74.565-182.533s-28.459-135.542-74.605-182.574l0.040 0.041-392.124-399.425c-12.026-12.026-27.917-18.898-45.096-18.898zM254.521 791.412c-45.526 0-87.616-17.609-119.398-49.821-31.024-31.463-50.183-74.697-50.183-122.404s19.159-90.941 50.203-122.425l377.072-383.514 376.662 383.534c31.024 31.463 50.183 74.697 50.183 122.404s-19.159 90.941-50.203 122.425l0.020-0.020c-30.424 31.017-72.773 50.244-119.613 50.244s-89.189-19.226-119.587-50.217l-0.026-0.027-107.372-109.52c-7.731-8.59-18.898-12.885-30.064-12.885-11.789 0.173-22.402 5.070-30.058 12.878l-0.007 0.007-108.231 109.52c-30.386 30.766-72.566 49.821-119.198 49.821-0.070 0-0.141 0-0.212 0h0.011z" />
<glyph unicode="&#xe919;" glyph-name="inst" d="M732.699-64.001h-440.859c-161.030 0-291.571 130.541-291.571 291.571v0 440.859c0 161.145 130.425 291.571 291.032 291.571h441.398c160.606 0 291.032-130.425 291.032-291.032v-441.398c0-160.606-130.425-291.032-291.032-291.032zM291.841 872.15c-112.513 0-203.722-91.209-203.722-203.722v0-440.859c0-112.101 91.621-203.722 203.722-203.722h440.859c112.101 0 203.722 91.621 203.722 203.722v440.859c0 112.64-91.621 203.722-203.722 203.722zM512.27 186.070c-144.957 0-262.467 117.511-262.467 262.467s117.511 262.467 262.467 262.467v0c144.957 0 262.467-117.511 262.467-262.467s-117.511-262.467-262.467-262.467v0zM512.27 622.617c-96.439 0-174.619-78.18-174.619-174.619s78.18-174.619 174.619-174.619v0c96.439 0 174.619 78.18 174.619 174.619s-78.18 174.619-174.619 174.619v0zM848.573 725.017c0-34.825-28.232-63.057-63.057-63.057s-63.057 28.232-63.057 63.057v0c0 34.825 28.232 63.057 63.057 63.057s63.057-28.232 63.057-63.057v0z" />
<glyph unicode="&#xe91a;" glyph-name="plus2" d="M455.111-64v455.111h-455.111v113.778h455.111v455.111h113.778v-455.111h455.111v-113.778h-455.111v-455.111z" />
<glyph unicode="&#xe91b;" glyph-name="angle-right" horiz-adv-x="658" d="M560.055 344.576l-413.769-413.769-103.424 103.424 413.696 413.769-413.696 413.769 103.424 103.424 517.193-517.193z" />
</font>
</defs>
</svg>
