<?xml version="1.0" encoding="UTF-8" standalone="no"?>
<svg
   xmlns:dc="http://purl.org/dc/elements/1.1/"
   xmlns:cc="http://creativecommons.org/ns#"
   xmlns:rdf="http://www.w3.org/1999/02/22-rdf-syntax-ns#"
   xmlns:svg="http://www.w3.org/2000/svg"
   xmlns="http://www.w3.org/2000/svg"
   viewBox="0 0 1749.8259 1999.6317"
   height="1999.6317"
   width="1749.8259"
   id="svg2"
   version="1.1">
  <metadata
     id="metadata8">
    <rdf:RDF>
      <cc:Work
         rdf:about="">
        <dc:format>image/svg+xml</dc:format>
        <dc:type
           rdf:resource="http://purl.org/dc/dcmitype/StillImage" />
        <dc:title></dc:title>
      </cc:Work>
    </rdf:RDF>
  </metadata>
  <defs
     id="defs6" />
  <path
     id="path12"
     d="m 654.79562,1958.2083 c -23.8126,-22.9552 -49.6569,-47.9578 -57.4319,-55.5613 l -14.1362,-13.8247 422.21478,-402.2532 422.2148,-402.2531 -713.82858,-0.2507 L 0,1083.8146 v -83.99864 -83.99861 l 714.25742,-0.25069 714.25738,-0.2507 -422.7574,-402.38569 C 773.24082,291.61814 583.00002,110.2161 583.00002,109.81462 583.00002,108.2718 698.15672,-0.29800512 699.47642,6.1488152e-4 700.24292,0.17405488 914.31182,203.30853 1175.185,451.41056 c 571.0148,543.06043 574.6377,546.51792 574.6409,548.4054 0,0.82504 -23.2463,23.52474 -51.6617,50.44394 -28.4153,26.9191 -264.4373,251.4691 -524.4932,499 -260.05598,247.5308 -473.44798,450.1976 -474.20438,450.3706 -0.7564,0.173 -20.8584,-18.467 -44.671,-41.4222 z"
     style="fill:#000000" />
</svg>
