<?xml version="1.0" encoding="UTF-8" standalone="no"?>
<svg
   xmlns:dc="http://purl.org/dc/elements/1.1/"
   xmlns:cc="http://creativecommons.org/ns#"
   xmlns:rdf="http://www.w3.org/1999/02/22-rdf-syntax-ns#"
   xmlns:svg="http://www.w3.org/2000/svg"
   xmlns="http://www.w3.org/2000/svg"
   viewBox="0 0 1749.8308 1999.7795"
   height="1999.7795"
   width="1749.8308"
   id="svg2"
   version="1.1">
  <metadata
     id="metadata8">
    <rdf:RDF>
      <cc:Work
         rdf:about="">
        <dc:format>image/svg+xml</dc:format>
        <dc:type
           rdf:resource="http://purl.org/dc/dcmitype/StillImage" />
        <dc:title></dc:title>
      </cc:Work>
    </rdf:RDF>
  </metadata>
  <defs
     id="defs6" />
  <path
     id="path12"
     d="M 581.33081,1554.2155 C 323.93081,1309.1754 87.829706,1084.5293 56.661696,1055.0021 25.4937,1025.4747 -0.00409951,1000.641 4.9438522e-7,999.81597 0.01000049,997.92777 3.7855005,994.32407 574.64571,451.41055 835.51901,203.30852 1049.5879,0.17405488 1050.3543,6.1488159e-4 1051.674,-0.29800512 1166.8308,108.27179 1166.8308,109.81461 c 0,0.40148 -190.24092,181.80353 -422.75739,403.11565 l -422.7575,402.38564 714.25749,0.2507 714.2574,0.2507 v 83.99867 83.99873 l -713.8286,0.2507 -713.82849,0.2507 422.2147,402.2531 422.21479,402.2532 -14.1362,13.8247 c -44.1217,43.1493 -100.7682,97.164 -101.8651,97.1325 -0.6991,-0.02 -211.87109,-200.5239 -469.27109,-445.5641 z"
     style="fill:#000000" />
</svg>
