<svg xmlns="http://www.w3.org/2000/svg" xmlns:xlink="http://www.w3.org/1999/xlink" width="44" height="22" viewBox="0 0 44 22"><defs><path id="iab9a" d="M995.98 388.25v3.87a2.86 2.86 0 0 1-2.86 2.86h-1.14a3.86 3.86 0 0 1-7.53 0h-10.28a3.86 3.86 0 0 1-7.52 0h-1.42a2.86 2.86 0 0 1-2.86-2.86v-1.48h-3.4a.87.87 0 0 1 0-1.74h6.6a.87.87 0 1 1 0 1.74h-1.46v1.48c0 .62.5 1.12 1.12 1.12h1.42a3.86 3.86 0 0 1 7.51 0h10.3a3.86 3.86 0 0 1 7.51 0h1.15c.62 0 1.12-.5 1.12-1.12v-3.87-.02c-.29-.55-.58-1.07-.87-1.57h-7.71c-2.37 0-3.23-2-3.23-3.33v-3.1a.87.87 0 0 1 1.74 0v3.1c0 .37.13 1.6 1.49 1.6h6.64c-4.99-7.56-9.24-7.2-9.29-7.21l-.13-.01h-19.91a.87.87 0 1 1 0-1.74h20.17c1.48 0 7.07.77 12.73 11.61.08.16.11.32.1.49a.9.9 0 0 1 .01.18zm-23.63 6.73a2.1 2.1 0 0 0-.02-1.74 2.12 2.12 0 1 0 .02 1.74zm17.8 0a2.1 2.1 0 0 0-.02-1.74 2.12 2.12 0 1 0 .02 1.74zm-35.21-14.89c0-.48.39-.87.87-.87h13.08a.87.87 0 1 1 0 1.74H955.8a.87.87 0 0 1-.87-.87zm13.95 7.32h-16.04a.87.87 0 1 1 0-1.74h16.04a.87.87 0 1 1 0 1.74zm-9.28-4.96h12.6a.87.87 0 1 1 0 1.74h-12.6a.87.87 0 0 1 0-1.74z"/></defs><g><g transform="translate(-952 -376)"><use xlink:href="#iab9a"/></g></g></svg>