<svg xmlns="http://www.w3.org/2000/svg" xmlns:xlink="http://www.w3.org/1999/xlink" width="26" height="24" viewBox="0 0 26 24"><defs><path id="tnnma" d="M600.65 1838.93h-12.87l.56 2.04 11.74-.05a1 1 0 0 1 1 1 1 1 0 0 1-1 .99h-11.76c-.89 0-1.65-.56-1.91-1.4l-3.7-13.53H579a1 1 0 0 1-1.01-1 1 1 0 0 1 1-1h4.47a1 1 0 0 1 .97.74l1.18 4.33a1 1 0 0 1 .4-.09H602c.7 0 1.33.32 1.7.85.33.47.4 1.04.2 1.57l-1.31 4.25c-.3.8-1.06 1.3-1.93 1.3zm.04-1.98l1.24-3.98-15.78-.02 1.09 3.99zm1.3-4.2zm-4.68 17.24a2.97 2.97 0 0 1-2.98-2.95 2.97 2.97 0 0 1 2.98-2.95 2.97 2.97 0 0 1 2.97 2.95 2.97 2.97 0 0 1-2.97 2.95zm0-3.9a.97.97 0 0 0-.97.95c0 .53.43.96.97.96.53 0 .96-.43.96-.96a.97.97 0 0 0-.96-.96zm-8.03 3.9a2.97 2.97 0 0 1-2.98-2.95 2.97 2.97 0 0 1 2.98-2.95 2.97 2.97 0 0 1 2.97 2.95 2.97 2.97 0 0 1-2.97 2.95zm0-3.9a.97.97 0 0 0-.97.95c0 .53.43.96.97.96.53 0 .96-.43.96-.96a.97.97 0 0 0-.96-.96z"/></defs><g><g transform="translate(-578 -1826)"><use fill="#fff" xlink:href="#tnnma"/></g></g></svg>