<svg xmlns="http://www.w3.org/2000/svg" xmlns:xlink="http://www.w3.org/1999/xlink" width="14" height="24" viewBox="0 0 14 24"><defs><path id="rysja" d="M816 600c-3.86 0-7-3.14-7-7v-12c0-2.757 2.243-5 5-5 2.756 0 5 2.243 5 5v11.994c0 1.654-1.347 3-3.001 3a3.001 3.001 0 0 1-2.999-2.997V582a1 1 0 1 1 2 0v10.997c0 .55.447.997.997.997.553 0 1.003-.449 1.003-1V581c0-1.654-1.346-3-3-3-1.655 0-3 1.346-3 3v12c0 2.757 2.243 5 5 5s5-2.243 5-5v-9a1 1 0 1 1 2 0v9c0 3.86-3.14 7-7 7z"/></defs><g><g transform="translate(-809 -576)"><use xlink:href="#rysja"/></g></g></svg>