<svg xmlns="http://www.w3.org/2000/svg" xmlns:xlink="http://www.w3.org/1999/xlink" width="25" height="20" viewBox="0 0 25 20"><defs><path id="brcca" d="M1105.45 95c-.4 0-.77-.16-1.06-.44l-9.13-9.3a6.07 6.07 0 0 1 0-8.5 5.86 5.86 0 0 1 8.39 0l1.8 1.83 1.79-1.83a5.86 5.86 0 0 1 8.39 0 6.07 6.07 0 0 1 0 8.5l-9.13 9.3c-.28.28-.65.44-1.05.44zm-6-18c-1.06 0-2.04.41-2.78 1.16a4.06 4.06 0 0 0 0 5.7l8.78 8.93 8.77-8.93a4.06 4.06 0 0 0 0-5.7 3.9 3.9 0 0 0-5.57 0l-2.5 2.55c-.18.2-.44.3-.7.3a1 1 0 0 1-.7-.3l-2.52-2.55a3.9 3.9 0 0 0-2.78-1.16z"/></defs><g><g transform="translate(-1093 -75)"><use fill="#353146" xlink:href="#brcca"/></g></g></svg>