<svg xmlns="http://www.w3.org/2000/svg" xmlns:xlink="http://www.w3.org/1999/xlink" width="26" height="18" viewBox="0 0 26 18"><defs><path id="3w9ja" d="M998.554 825.357v2.405h2.369v2.405h-2.369v2.404h-2.37v-2.404h-2.369v-2.405h2.369v-2.405zm-21.192-2.405c2.369-2.405 5.791-2.94 8.819-1.737l1.184.669 1.317.935-2.107 2.137-.788-.535c-1.844-1.202-4.477-.934-6.188.803-1.975 2.004-2.106 5.612 0 7.749 1.976 2.138 5.529 2.138 7.372 0 .527-.535 1.052-1.337 1.184-2.137v-.268h-4.739v-2.672h7.503l.132.667v1.87c-.132 1.738-.79 3.475-1.974 4.678-3.16 3.072-8.688 3.072-11.847-.134-3.16-3.207-3.16-8.818.132-12.025z"/></defs><g><g transform="translate(-975 -820)"><use xlink:href="#3w9ja"/></g></g></svg>