<svg xmlns="http://www.w3.org/2000/svg" xmlns:xlink="http://www.w3.org/1999/xlink" width="19" height="19" viewBox="0 0 19 19"><defs><path id="19apa" d="M1470.59 3800h-8.18a5.41 5.41 0 0 1-5.41-5.41v-8.18c0-2.99 2.42-5.41 5.4-5.41h8.19c2.98 0 5.4 2.42 5.4 5.4v8.19c0 2.98-2.42 5.4-5.4 5.4zm-8.18-17.37a3.78 3.78 0 0 0-3.78 3.78v8.18c0 2.08 1.7 3.78 3.78 3.78h8.18c2.08 0 3.78-1.7 3.78-3.78v-8.18c0-2.09-1.7-3.78-3.78-3.78zm4.09 12.73a4.87 4.87 0 1 1 0-9.74 4.87 4.87 0 0 1 0 9.74zm0-8.1a3.24 3.24 0 1 0 0 6.48 3.24 3.24 0 0 0 0-6.48zm6.24-1.9a1.17 1.17 0 1 1-2.34 0 1.17 1.17 0 0 1 2.34 0z"/></defs><g><g transform="translate(-1457 -3781)"><use fill="#5d5f66" xlink:href="#19apa"/></g></g></svg>