<svg xmlns="http://www.w3.org/2000/svg" xmlns:xlink="http://www.w3.org/1999/xlink" width="24" height="24" viewBox="0 0 24 24"><defs><path id="yuwya" d="M1229 94h16v2h-16zm20-9a4 4 0 0 1-8 0 1 1 0 0 1 .06-.35l2.5-6.65H1238v13h3v2h-8v-2h3V78h-5.56l2.5 6.65c.04.11.06.23.06.35a4 4 0 0 1-8 0 1 1 0 0 1 .06-.35l3-8a1 1 0 0 1 .78-.63.43.43 0 0 1 .16-.02h16c.07 0 .13 0 .16.02.35.06.65.3.78.63l3 8c.04.11.06.23.06.35zm-20-5.15l-2 5.31a2 2 0 0 0 4 0zm18 5.31l-2-5.31-2 5.31a2 2 0 0 0 4 0zM1236 73a1 1 0 1 1 2 0 1 1 0 0 1-2 0z"/></defs><g><g transform="translate(-1225 -72)"><use fill="#353146" xlink:href="#yuwya"/></g></g></svg>