<svg xmlns="http://www.w3.org/2000/svg" xmlns:xlink="http://www.w3.org/1999/xlink" width="22" height="23" viewBox="0 0 22 23"><defs><path id="vrkqa" d="M1534.04 162.4a9.14 9.14 0 0 1-9.05-9.2c0-5.08 4.06-9.2 9.05-9.2a9.13 9.13 0 0 1 9.05 9.2c0 2.36-.88 4.53-2.34 6.16l6.24 6.34-1.28 1.3-6.25-6.35.4-.42a8.92 8.92 0 0 1-5.82 2.16zm0-16.56c-3.99 0-7.24 3.3-7.24 7.35a7.3 7.3 0 0 0 7.24 7.36c4 0 7.25-3.3 7.25-7.36a7.3 7.3 0 0 0-7.25-7.35z"/></defs><g><g transform="translate(-1525 -144)"><use fill="#353146" xlink:href="#vrkqa"/></g></g></svg>