<svg xmlns="http://www.w3.org/2000/svg" xmlns:xlink="http://www.w3.org/1999/xlink" width="15" height="24" viewBox="0 0 15 24"><defs><path id="mhcna" d="M1103.887 820.627c-1.443 0-2.62 1.15-2.62 2.565 0 1.413 1.176 2.563 2.62 2.563 1.446 0 2.622-1.15 2.622-2.563 0-1.414-1.176-2.565-2.622-2.565zm0 8.757c-3.49 0-6.33-2.777-6.33-6.192 0-3.416 2.84-6.195 6.33-6.195 3.493 0 6.332 2.779 6.332 6.195 0 3.415-2.84 6.192-6.332 6.192 0 0 3.492 0 0 0zm2.562 5.052l3.538 3.463.004.004c.722.709.72 1.856-.004 2.563l-.002.002a1.882 1.882 0 0 1-2.619-.002l-3.48-3.403-3.476 3.402a1.883 1.883 0 0 1-2.623.001 1.788 1.788 0 0 1 0-2.567l3.539-3.463a12.004 12.004 0 0 1-3.675-1.489 1.791 1.791 0 0 1-.581-2.502v-.003a1.879 1.879 0 0 1 2.557-.567 8.188 8.188 0 0 0 8.522 0l.002-.002a1.878 1.878 0 0 1 2.555.572 1.791 1.791 0 0 1-.581 2.502 11.996 11.996 0 0 1-3.676 1.49z"/></defs><g><g transform="translate(-1096 -817)"><use xlink:href="#mhcna"/></g></g></svg>