<svg xmlns="http://www.w3.org/2000/svg" xmlns:xlink="http://www.w3.org/1999/xlink" width="22" height="30" viewBox="0 0 22 30"><defs><path id="k8wka" d="M663 784.25v7.5c0 6.2-4.94 11.25-11 11.25-6.07 0-11-5.05-11-11.25v-7.5c0-6.2 4.93-11.25 11-11.25 6.06 0 11 5.05 11 11.25zm-2.45 0a8.66 8.66 0 0 0-8.55-8.75 8.66 8.66 0 0 0-8.56 8.75v7.5a8.66 8.66 0 0 0 8.56 8.75 8.66 8.66 0 0 0 8.55-8.75zm-7.54 3.74h-2.25v-4.58H649v-1.68h.2c1.05 0 1.97-.63 2-1.74h1.8z"/></defs><g><g transform="translate(-641 -773)"><use fill="#fff" xlink:href="#k8wka"/></g></g></svg>