<svg xmlns="http://www.w3.org/2000/svg" xmlns:xlink="http://www.w3.org/1999/xlink" width="21" height="21" viewBox="0 0 21 21"><defs><path id="m9rya" d="M1270 4036h-6v-6h2v2.58l4.59-4.58 1.4 1.41-4.58 4.59h2.59zm2 8a5 5 0 0 1-5 5c-8.82 0-16-7.18-16-16a5 5 0 1 1 7.1 4.54 9.98 9.98 0 0 0 4.36 4.36 5 5 0 0 1 9.54 2.1zm-2 0a3 3 0 0 0-5.95-.55l-.21 1.18-1.13-.43a11.99 11.99 0 0 1-6.92-6.92l-.42-1.12 1.18-.22a3 3 0 0 0-.55-5.94 3 3 0 0 0-3 3c0 7.72 6.28 14 14 14a3 3 0 0 0 3-3z"/></defs><g><g transform="translate(-1251 -4028)"><use fill="#fff" xlink:href="#m9rya"/></g></g></svg>