<svg xmlns="http://www.w3.org/2000/svg" xmlns:xlink="http://www.w3.org/1999/xlink" width="23" height="23" viewBox="0 0 23 23"><defs><path id="6piqa" d="M657 75v6.57h-2.2v-2.83l-5.01 5.02-1.55-1.55 5.02-5.02h-2.82V75zm0 17.52a5.48 5.48 0 0 1-5.48 5.48A17.54 17.54 0 0 1 634 80.48a5.48 5.48 0 1 1 7.77 4.97 10.94 10.94 0 0 0 4.78 4.78 5.47 5.47 0 0 1 10.45 2.3zm-2.2 0a3.29 3.29 0 0 0-6.5-.6l-.24 1.3-1.23-.47a13.13 13.13 0 0 1-7.58-7.58l-.47-1.23 1.3-.24a3.28 3.28 0 0 0-.6-6.51 3.29 3.29 0 0 0-3.29 3.29c0 8.45 6.88 15.33 15.33 15.33a3.29 3.29 0 0 0 3.29-3.29z"/></defs><g><g transform="translate(-634 -75)"><use xlink:href="#6piqa"/></g></g></svg>