<svg xmlns="http://www.w3.org/2000/svg" xmlns:xlink="http://www.w3.org/1999/xlink" width="19" height="24" viewBox="0 0 19 24"><defs><path id="r5jxa" d="M365.71 25.1a3.9 3.9 0 0 1-2.8-1.13 3.94 3.94 0 0 1-1.13-2.8c0-2.22 1.72-3.95 3.91-3.95 2.2 0 3.92 1.73 3.93 3.94a3.88 3.88 0 0 1-3.9 3.95zm-.02-5.9c-1.11 0-1.95.84-1.95 1.96 0 .55.2 1.05.55 1.41.74.74 2.1.71 2.81 0 .36-.36.56-.86.56-1.4 0-1.13-.84-1.97-1.96-1.97zm0 16.8l-.74-.9c-.23-.27-5.63-6.72-6.75-8.52a9.44 9.44 0 0 1-1.52-5.54c0-5 4.05-9.06 9.02-9.06a9.05 9.05 0 0 1 9.02 9.06c0 1.9-.26 3.5-1.53 5.54-1.11 1.8-6.51 8.25-6.74 8.53zm0-22.05a7.08 7.08 0 0 0-7.05 7.09c0 1.89.3 3.02 1.23 4.5.8 1.3 4.28 5.53 5.83 7.4 1.55-1.87 5.02-6.1 5.83-7.4a7.45 7.45 0 0 0 1.22-4.5c0-3.91-3.16-7.1-7.05-7.1z"/></defs><g><g transform="translate(-356 -12)"><use fill="#929292" xlink:href="#r5jxa"/></g></g></svg>