<svg xmlns="http://www.w3.org/2000/svg" xmlns:xlink="http://www.w3.org/1999/xlink" width="17" height="17" viewBox="0 0 17 17"><defs><path id="5wkza" d="M626.5 1048a8.51 8.51 0 0 1 0-17 8.51 8.51 0 0 1 0 17zm0-15.22a6.73 6.73 0 1 0 0 13.45 6.73 6.73 0 0 0 0-13.45zm.89 11.04h-1.79v-1.66h1.79zm-.03-2.09h-1.65v-.42c0-1.16.26-1.79 1.01-2.49.2-.19.4-.56.4-.76 0-.43-.2-.67-.59-.67-.39 0-.58.22-.58.67h-1.65c0-1.5.94-2.58 2.23-2.58 1.3 0 2.24 1.08 2.24 2.58 0 .91-.51 1.79-1.02 2.26-.36.33-.39.4-.39 1z"/></defs><g><g transform="translate(-618 -1031)"><use fill="#a7a7a7" xlink:href="#5wkza"/></g></g></svg>