<svg xmlns="http://www.w3.org/2000/svg" xmlns:xlink="http://www.w3.org/1999/xlink" width="22" height="24" viewBox="0 0 22 24"><defs><path id="u977a" d="M1518.37 392.33a4.45 4.45 0 0 1-4.4-4.5 4.45 4.45 0 0 1 4.4-4.48c1.3 0 2.47.58 3.28 1.5l5.63-3.4a4.45 4.45 0 0 1 4.28-5.56 4.46 4.46 0 0 1 4.41 4.5 4.45 4.45 0 0 1-4.4 4.48 4.37 4.37 0 0 1-3.39-1.6l-5.57 3.35a4.55 4.55 0 0 1 0 2.47l5.64 3.32c.81-.93 2-1.52 3.31-1.52a4.45 4.45 0 0 1 4.41 4.49 4.45 4.45 0 0 1-4.4 4.49 4.45 4.45 0 0 1-4.26-5.67l-5.68-3.34c-.8.9-1.97 1.47-3.26 1.47zm0-6.95a2.44 2.44 0 0 0-2.42 2.46 2.44 2.44 0 0 0 2.42 2.46c1.33 0 2.42-1.1 2.42-2.46a2.44 2.44 0 0 0-2.42-2.46zm13.2-7.46a2.44 2.44 0 0 0-2.43 2.46 2.44 2.44 0 0 0 2.42 2.46c1.34 0 2.42-1.1 2.42-2.46a2.44 2.44 0 0 0-2.42-2.46zm0 15a2.44 2.44 0 0 0-2.43 2.46 2.44 2.44 0 0 0 2.42 2.46c1.34 0 2.42-1.1 2.42-2.46a2.44 2.44 0 0 0-2.42-2.46z"/></defs><g><g transform="translate(-1514 -376)"><use fill="#d1d1d1" xlink:href="#u977a"/></g></g></svg>