<svg xmlns="http://www.w3.org/2000/svg" xmlns:xlink="http://www.w3.org/1999/xlink" width="21" height="25" viewBox="0 0 21 25"><defs><path id="yo88a" d="M718.54 397.96c-.1 0-.21-.01-.32-.04-.58-.17-9.69-5.24-9.69-10.5v-9.36c0-.65.53-1.18 1.18-1.18 1.96 0 7.26-2.55 7.86-3.42.22-.32.59-.51.97-.51h.01c.39 0 .76.19.98.5.55.83 5.6 3.43 7.85 3.43.65 0 1.18.53 1.18 1.18v9.85c0 4.51-9.23 9.88-9.7 10-.1.04-.2.05-.32.05zm-7.66-18.86v8.32c0 3.06 5.84 7.04 7.67 8.05 1.83-1.04 7.65-5.27 7.65-7.56v-8.8c-2.38-.44-5.87-2-7.67-3.39a23 23 0 0 1-7.65 3.38z"/></defs><g><g transform="translate(-708 -373)"><use xlink:href="#yo88a"/></g></g></svg>