<svg xmlns="http://www.w3.org/2000/svg" xmlns:xlink="http://www.w3.org/1999/xlink" width="20" height="15" viewBox="0 0 20 15"><defs><path id="xsdna" d="M1347.2 3793.97s2.7.93 3.81.93c0 0 1.5.6 2.53-.99 0 0 .35-.5-.12-.73 0 0-4.29-.5-3.96-1.27 0 0-.02-.44.57-.34 0 0 .83-1.57.5-1.77 0 0-.5-.44-.1-.48 0 0 1.2.16 1.59.26 0 0 .26-.1.02-.27-.25-.18-.66-.59-.57-.67 0 0 .14-.33.8-.05 0 0 .36-.39.17-.59 0 0-.55-.32-.28-.58 0 0 1.24-1.52 2.63.89 0 0 .34.45.38.02 0 0 1.7-4.72 3.92-5.1 0 0 .71.14.86-.08 0 0 .62-.24.82-.04 0 0 .2.3.45.12 0 0 .88-.34.61.22 0 0-.84.9-1.14.92-.31.02-.25.43.02.47 0 0 3.66.26 3.66 2.93 0 0 .22.63.91-.02 0 0 1.05-.66 1.32-.69 0 0 .28-.18.24.24 0 0-.75 1.28-1.53 1.64 0 0-.47.57.2.46 0 0 .66-.14.97-.32 0 0 .8-.37.43.3 0 0-1.68 1.07-2.05 1.07 0 0-.24.06-.24.28 0 0-.23 7.28-9.57 7.28 0 0-4.68-.01-7.74-3.52 0 0-.59-.62-.12-.52z"/></defs><g><g transform="translate(-1347 -3783)"><use fill="#5d5f66" xlink:href="#xsdna"/></g></g></svg>