<svg xmlns="http://www.w3.org/2000/svg" xmlns:xlink="http://www.w3.org/1999/xlink" width="11" height="14" viewBox="0 0 11 14"><defs><path id="s3h0a" d="M1416 3793.59c0 .66-.13 1.24-.37 1.74s-.56.91-.97 1.24c-.48.4-1.01.67-1.6.84-.57.17-1.3.25-2.2.25h-5.13v-13.31h4.53c.95 0 1.66.04 2.15.11.48.08.94.23 1.36.47.46.26.8.6 1.03 1.03.23.43.34.92.34 1.49 0 .65-.16 1.22-.47 1.73-.31.5-.74.88-1.3 1.12v.07c.8.17 1.43.52 1.9 1.06.48.53.72 1.25.72 2.16zm-4.3-6.14a.98.98 0 0 0-.49-.49c-.21-.1-.46-.15-.75-.16h-1.52v2.8h1.56c.22-.02.45-.08.69-.2.25-.12.43-.3.53-.51.1-.23.15-.48.15-.77 0-.22-.06-.44-.16-.67zm.98 6.07c0-.4-.08-.73-.25-.96-.16-.24-.4-.4-.72-.53-.2-.08-.46-.12-.8-.13l-1.38-.01h-.6v3.33h.18c.84 0 1.42 0 1.74-.02.32 0 .65-.09.98-.24.3-.13.5-.32.64-.57.14-.26.2-.54.2-.87z"/></defs><g><g transform="translate(-1405 -3784)"><use fill="#5d5f66" xlink:href="#s3h0a"/></g></g></svg>